<svg width="151" height="30" viewBox="0 0 151 30" fill="none" xmlns="http://www.w3.org/2000/svg">
<g clip-path="url(#clip0_65_4539)">
<path d="M37.7024 27.2143V7.60715H31.6274V3.26786H48.6631V7.60715H42.6845V27.2143H37.7024ZM56.9703 27.6C55.106 27.6 53.4881 27.1929 52.1167 26.3786C50.7453 25.5429 49.6845 24.4286 48.9345 23.0357C48.1845 21.6429 47.8095 20.1 47.8095 18.4071C47.8095 16.65 48.1953 15.0857 48.9667 13.7143C49.7595 12.3429 50.8203 11.2607 52.1488 10.4679C53.4774 9.675 54.9774 9.27857 56.6488 9.27857C58.0417 9.27857 59.2738 9.50357 60.3453 9.95357C61.4167 10.3821 62.3167 10.9929 63.0453 11.7857C63.7953 12.5786 64.3631 13.5 64.7488 14.55C65.1345 15.5786 65.3274 16.7036 65.3274 17.925C65.3274 18.2679 65.306 18.6107 65.2631 18.9536C65.2417 19.275 65.1881 19.5536 65.1024 19.7893H51.956V16.2536H62.3703L60.0881 17.925C60.3024 17.0036 60.2917 16.1893 60.056 15.4821C59.8203 14.7536 59.4024 14.1857 58.8024 13.7786C58.2238 13.35 57.506 13.1357 56.6488 13.1357C55.8131 13.1357 55.0953 13.3393 54.4953 13.7464C53.8953 14.1536 53.4453 14.7536 53.1453 15.5464C52.8453 16.3393 52.7274 17.3036 52.7917 18.4393C52.706 19.425 52.8238 20.2929 53.1453 21.0429C53.4667 21.7929 53.9595 22.3821 54.6238 22.8107C55.2881 23.2179 56.0917 23.4214 57.0345 23.4214C57.8917 23.4214 58.6203 23.25 59.2203 22.9071C59.8417 22.5643 60.3238 22.0929 60.6667 21.4929L64.5238 23.325C64.181 24.1821 63.6345 24.9321 62.8845 25.575C62.156 26.2179 61.2881 26.7214 60.281 27.0857C59.2738 27.4286 58.1703 27.6 56.9703 27.6ZM76.7808 27.6C75.0237 27.6 73.4379 27.2036 72.0237 26.4107C70.6308 25.5964 69.5165 24.4929 68.6808 23.1C67.8665 21.7071 67.4594 20.1429 67.4594 18.4071C67.4594 16.6714 67.8665 15.1179 68.6808 13.7464C69.4951 12.3536 70.6094 11.2607 72.0237 10.4679C73.4379 9.675 75.0237 9.27857 76.7808 9.27857C78.0879 9.27857 79.2987 9.50357 80.4129 9.95357C81.5272 10.4036 82.4808 11.0357 83.2737 11.85C84.0665 12.6429 84.6344 13.5857 84.9772 14.6786L80.7987 16.4786C80.4987 15.6 79.9844 14.9036 79.2558 14.3893C78.5487 13.875 77.7237 13.6179 76.7808 13.6179C75.9451 13.6179 75.1951 13.8214 74.5308 14.2286C73.8879 14.6357 73.3737 15.2036 72.9879 15.9321C72.6237 16.6607 72.4415 17.4964 72.4415 18.4393C72.4415 19.3821 72.6237 20.2179 72.9879 20.9464C73.3737 21.675 73.8879 22.2429 74.5308 22.65C75.1951 23.0571 75.9451 23.2607 76.7808 23.2607C77.7451 23.2607 78.5808 23.0036 79.2879 22.4893C79.9951 21.975 80.4987 21.2786 80.7987 20.4L84.9772 22.2321C84.6558 23.2607 84.0987 24.1821 83.3058 24.9964C82.5129 25.8107 81.5594 26.4536 80.4451 26.925C79.3308 27.375 78.1094 27.6 76.7808 27.6ZM87.8163 27.2143V2.88215H92.6378V13.1357L92.0592 12.3643C92.4663 11.3143 93.1199 10.5429 94.0199 10.05C94.9413 9.53572 96.0128 9.27857 97.2342 9.27857C98.5628 9.27857 99.7199 9.55715 100.706 10.1143C101.713 10.6714 102.495 11.4536 103.052 12.4607C103.609 13.4464 103.888 14.6036 103.888 15.9321V27.2143H99.0663V16.9607C99.0663 16.275 98.9271 15.6857 98.6485 15.1929C98.3913 14.7 98.0163 14.3143 97.5235 14.0357C97.0521 13.7571 96.4949 13.6179 95.8521 13.6179C95.2306 13.6179 94.6735 13.7571 94.1806 14.0357C93.6878 14.3143 93.3021 14.7 93.0235 15.1929C92.7663 15.6857 92.6378 16.275 92.6378 16.9607V27.2143H87.8163ZM105.644 27.2143V23.3571L115.737 12.2357L116.444 13.8429H106.062V9.66429H120.719V13.5214L110.883 24.675L110.176 23.0357H120.751V27.2143H105.644ZM131.589 27.6C129.853 27.6 128.268 27.2036 126.832 26.4107C125.418 25.6179 124.282 24.5357 123.425 23.1643C122.589 21.7714 122.171 20.1964 122.171 18.4393C122.171 16.6607 122.589 15.0857 123.425 13.7143C124.282 12.3429 125.418 11.2607 126.832 10.4679C128.268 9.675 129.853 9.27857 131.589 9.27857C133.325 9.27857 134.9 9.675 136.314 10.4679C137.728 11.2607 138.853 12.3429 139.689 13.7143C140.546 15.0857 140.975 16.6607 140.975 18.4393C140.975 20.1964 140.546 21.7714 139.689 23.1643C138.853 24.5357 137.728 25.6179 136.314 26.4107C134.9 27.2036 133.325 27.6 131.589 27.6ZM131.589 23.2607C132.468 23.2607 133.228 23.0571 133.871 22.65C134.536 22.2429 135.05 21.675 135.414 20.9464C135.8 20.2179 135.993 19.3821 135.993 18.4393C135.993 17.4964 135.8 16.6714 135.414 15.9643C135.05 15.2357 134.536 14.6679 133.871 14.2607C133.228 13.8321 132.468 13.6179 131.589 13.6179C130.711 13.6179 129.939 13.8321 129.275 14.2607C128.611 14.6679 128.086 15.2357 127.7 15.9643C127.336 16.6714 127.153 17.4964 127.153 18.4393C127.153 19.3821 127.336 20.2179 127.7 20.9464C128.086 21.675 128.611 22.2429 129.275 22.65C129.939 23.0571 130.711 23.2607 131.589 23.2607Z" fill="#0A165E"/>
<path d="M17.5506 3.84052C19.4932 5.78304 18.8525 9.06878 16.3417 10.1537C15.8871 10.35 15.4015 10.4533 14.9158 10.474C12.5497 10.5463 9.67208 13.4239 9.59976 15.7901C9.5326 17.8824 7.82256 19.5615 5.71989 19.5563C3.57072 19.5563 1.82969 17.8153 1.83486 15.6713C1.83486 13.5634 3.50873 11.8482 5.60107 11.7914C7.96722 11.7191 10.8448 8.84146 10.9172 6.47532C10.9791 4.37781 12.6995 2.70911 14.8022 2.70394C15.7941 2.70394 16.7912 3.08108 17.5506 3.84052ZM9.59976 24.8724C9.5326 26.9647 7.82256 28.6438 5.71989 28.6386C3.57073 28.6386 1.82969 26.8976 1.83486 24.7536C1.83486 23.7616 2.212 22.7646 2.97144 22.0051C3.67922 21.2973 4.61431 20.8995 5.60107 20.8737C7.96722 20.8014 10.8448 17.9238 10.9172 15.5576C10.9791 13.5014 12.6272 11.8534 14.6834 11.7914C17.0495 11.7191 19.9271 8.84147 19.9994 6.47532C20.0304 5.49373 20.4282 4.5483 21.136 3.84052C22.6549 2.32164 25.114 2.32164 26.6329 3.84052C28.5754 5.78304 27.9348 9.06878 25.424 10.1537C24.9694 10.35 24.4838 10.4533 23.9981 10.474C21.632 10.5463 18.7544 13.4239 18.6821 15.7901C18.6201 17.8463 16.972 19.4943 14.9158 19.5563C12.5497 19.6286 9.67208 22.5062 9.59976 24.8724ZM19.9994 24.7536C20.0046 22.6096 21.7456 20.8685 23.8845 20.8685C26.0285 20.8737 27.7695 22.6147 27.7695 24.7536C27.7695 26.9027 26.0285 28.6438 23.8845 28.6386C21.7353 28.6386 19.9994 26.9027 19.9994 24.7536ZM23.8845 11.7862C26.0285 11.7914 27.7695 13.5324 27.7695 15.6713C27.7695 17.7791 26.0956 19.4943 23.9981 19.5563C21.632 19.6286 18.7544 22.5062 18.6821 24.8724C18.6149 26.9647 16.8997 28.6386 14.8022 28.6386C12.653 28.6386 10.912 26.8976 10.9172 24.7536C10.9172 22.6457 12.5962 20.9357 14.6834 20.8737C17.0495 20.8014 19.9271 17.9238 19.9994 15.5576C20.0614 13.4601 21.7766 11.7862 23.8845 11.7862ZM8.46834 9.33743C6.94946 10.8563 4.49032 10.8563 2.97144 9.33743C1.45256 7.81854 1.45256 5.3594 2.97144 3.84052C4.49032 2.32164 6.94946 2.32164 8.46834 3.84052C9.98723 5.3594 9.98723 7.81854 8.46834 9.33743Z" fill="#0143EB"/>
<circle cx="146.512" cy="23.5714" r="3.21429" fill="#0143EB"/>
</g>
<defs>
<clipPath id="clip0_65_4539">
<rect width="149.167" height="30" fill="white" transform="translate(0.916656)"/>
</clipPath>
</defs>
</svg>
