<svg width="151" height="30" viewBox="0 0 151 30" fill="none" xmlns="http://www.w3.org/2000/svg">
<g clip-path="url(#clip0_65_3887)">
<path d="M37.702 27.2143V7.60715H31.627V3.26786H48.6627V7.60715H42.6842V27.2143H37.702ZM56.9699 27.6C55.1056 27.6 53.4877 27.1929 52.1163 26.3786C50.7449 25.5429 49.6842 24.4286 48.9342 23.0357C48.1842 21.6429 47.8092 20.1 47.8092 18.4071C47.8092 16.65 48.1949 15.0857 48.9663 13.7143C49.7592 12.3429 50.8199 11.2607 52.1485 10.4679C53.477 9.675 54.977 9.27857 56.6485 9.27857C58.0413 9.27857 59.2735 9.50357 60.3449 9.95357C61.4163 10.3821 62.3163 10.9929 63.0449 11.7857C63.7949 12.5786 64.3627 13.5 64.7485 14.55C65.1342 15.5786 65.327 16.7036 65.327 17.925C65.327 18.2679 65.3056 18.6107 65.2627 18.9536C65.2413 19.275 65.1877 19.5536 65.102 19.7893H51.9556V16.2536H62.3699L60.0877 17.925C60.302 17.0036 60.2913 16.1893 60.0556 15.4821C59.8199 14.7536 59.402 14.1857 58.802 13.7786C58.2235 13.35 57.5056 13.1357 56.6485 13.1357C55.8127 13.1357 55.0949 13.3393 54.4949 13.7464C53.8949 14.1536 53.4449 14.7536 53.1449 15.5464C52.8449 16.3393 52.727 17.3036 52.7913 18.4393C52.7056 19.425 52.8235 20.2929 53.1449 21.0429C53.4663 21.7929 53.9592 22.3821 54.6235 22.8107C55.2877 23.2179 56.0913 23.4214 57.0342 23.4214C57.8913 23.4214 58.6199 23.25 59.2199 22.9071C59.8413 22.5643 60.3235 22.0929 60.6663 21.4929L64.5235 23.325C64.1806 24.1821 63.6342 24.9321 62.8842 25.575C62.1556 26.2179 61.2877 26.7214 60.2806 27.0857C59.2735 27.4286 58.1699 27.6 56.9699 27.6ZM76.7804 27.6C75.0233 27.6 73.4376 27.2036 72.0233 26.4107C70.6304 25.5964 69.5161 24.4929 68.6804 23.1C67.8661 21.7071 67.459 20.1429 67.459 18.4071C67.459 16.6714 67.8661 15.1179 68.6804 13.7464C69.4947 12.3536 70.609 11.2607 72.0233 10.4679C73.4376 9.675 75.0233 9.27857 76.7804 9.27857C78.0876 9.27857 79.2983 9.50357 80.4126 9.95357C81.5269 10.4036 82.4804 11.0357 83.2733 11.85C84.0661 12.6429 84.634 13.5857 84.9769 14.6786L80.7983 16.4786C80.4983 15.6 79.984 14.9036 79.2554 14.3893C78.5483 13.875 77.7233 13.6179 76.7804 13.6179C75.9447 13.6179 75.1947 13.8214 74.5304 14.2286C73.8876 14.6357 73.3733 15.2036 72.9876 15.9321C72.6233 16.6607 72.4411 17.4964 72.4411 18.4393C72.4411 19.3821 72.6233 20.2179 72.9876 20.9464C73.3733 21.675 73.8876 22.2429 74.5304 22.65C75.1947 23.0571 75.9447 23.2607 76.7804 23.2607C77.7447 23.2607 78.5804 23.0036 79.2876 22.4893C79.9947 21.975 80.4983 21.2786 80.7983 20.4L84.9769 22.2321C84.6554 23.2607 84.0983 24.1821 83.3054 24.9964C82.5126 25.8107 81.559 26.4536 80.4447 26.925C79.3304 27.375 78.109 27.6 76.7804 27.6ZM87.816 27.2143V2.88215H92.6374V13.1357L92.0588 12.3643C92.466 11.3143 93.1196 10.5429 94.0196 10.05C94.941 9.53572 96.0124 9.27857 97.2338 9.27857C98.5624 9.27857 99.7196 9.55715 100.705 10.1143C101.712 10.6714 102.495 11.4536 103.052 12.4607C103.609 13.4464 103.887 14.6036 103.887 15.9321V27.2143H99.066V16.9607C99.066 16.275 98.9267 15.6857 98.6481 15.1929C98.391 14.7 98.016 14.3143 97.5231 14.0357C97.0517 13.7571 96.4945 13.6179 95.8517 13.6179C95.2303 13.6179 94.6731 13.7571 94.1803 14.0357C93.6874 14.3143 93.3017 14.7 93.0231 15.1929C92.766 15.6857 92.6374 16.275 92.6374 16.9607V27.2143H87.816ZM105.643 27.2143V23.3571L115.736 12.2357L116.443 13.8429H106.061V9.66429H120.718V13.5214L110.883 24.675L110.176 23.0357H120.751V27.2143H105.643ZM131.589 27.6C129.853 27.6 128.267 27.2036 126.832 26.4107C125.417 25.6179 124.282 24.5357 123.424 23.1643C122.589 21.7714 122.171 20.1964 122.171 18.4393C122.171 16.6607 122.589 15.0857 123.424 13.7143C124.282 12.3429 125.417 11.2607 126.832 10.4679C128.267 9.675 129.853 9.27857 131.589 9.27857C133.324 9.27857 134.899 9.675 136.314 10.4679C137.728 11.2607 138.853 12.3429 139.689 13.7143C140.546 15.0857 140.974 16.6607 140.974 18.4393C140.974 20.1964 140.546 21.7714 139.689 23.1643C138.853 24.5357 137.728 25.6179 136.314 26.4107C134.899 27.2036 133.324 27.6 131.589 27.6ZM131.589 23.2607C132.467 23.2607 133.228 23.0571 133.871 22.65C134.535 22.2429 135.049 21.675 135.414 20.9464C135.799 20.2179 135.992 19.3821 135.992 18.4393C135.992 17.4964 135.799 16.6714 135.414 15.9643C135.049 15.2357 134.535 14.6679 133.871 14.2607C133.228 13.8321 132.467 13.6179 131.589 13.6179C130.71 13.6179 129.939 13.8321 129.274 14.2607C128.61 14.6679 128.085 15.2357 127.699 15.9643C127.335 16.6714 127.153 17.4964 127.153 18.4393C127.153 19.3821 127.335 20.2179 127.699 20.9464C128.085 21.675 128.61 22.2429 129.274 22.65C129.939 23.0571 130.71 23.2607 131.589 23.2607Z" fill="white"/>
<path d="M17.5505 3.84052C19.493 5.78304 18.8524 9.06878 16.3415 10.1537C15.8869 10.35 15.4013 10.4533 14.9157 10.474C12.5495 10.5463 9.6719 13.4239 9.59957 15.7901C9.53241 17.8824 7.82238 19.5615 5.71971 19.5563C3.57054 19.5563 1.82951 17.8153 1.83468 15.6713C1.83468 13.5634 3.50855 11.8482 5.60088 11.7914C7.96703 11.7191 10.8446 8.84146 10.917 6.47532C10.979 4.37781 12.6993 2.70911 14.802 2.70394C15.7939 2.70394 16.791 3.08108 17.5505 3.84052ZM9.59957 24.8724C9.53241 26.9647 7.82238 28.6438 5.71971 28.6386C3.57054 28.6386 1.82951 26.8976 1.83468 24.7536C1.83468 23.7616 2.21181 22.7646 2.97125 22.0051C3.67903 21.2973 4.61413 20.8995 5.60089 20.8737C7.96703 20.8014 10.8446 17.9238 10.917 15.5576C10.979 13.5014 12.627 11.8534 14.6832 11.7914C17.0493 11.7191 19.9269 8.84147 19.9993 6.47532C20.0303 5.49373 20.4281 4.5483 21.1358 3.84052C22.6547 2.32164 25.1139 2.32164 26.6327 3.84052C28.5753 5.78304 27.9346 9.06878 25.4238 10.1537C24.9692 10.35 24.4836 10.4533 23.998 10.474C21.6318 10.5463 18.7542 13.4239 18.6819 15.7901C18.6199 17.8463 16.9718 19.4943 14.9157 19.5563C12.5495 19.6286 9.6719 22.5062 9.59957 24.8724ZM19.9993 24.7536C20.0044 22.6096 21.7455 20.8685 23.8843 20.8685C26.0283 20.8737 27.7693 22.6147 27.7693 24.7536C27.7693 26.9027 26.0283 28.6438 23.8843 28.6386C21.7351 28.6386 19.9993 26.9027 19.9993 24.7536ZM23.8843 11.7862C26.0283 11.7914 27.7693 13.5324 27.7693 15.6713C27.7693 17.7791 26.0955 19.4943 23.998 19.5563C21.6318 19.6286 18.7542 22.5062 18.6819 24.8724C18.6147 26.9647 16.8995 28.6386 14.802 28.6386C12.6528 28.6386 10.9118 26.8976 10.917 24.7536C10.917 22.6457 12.596 20.9357 14.6832 20.8737C17.0493 20.8014 19.9269 17.9238 19.9993 15.5576C20.0613 13.4601 21.7765 11.7862 23.8843 11.7862ZM8.46816 9.33743C6.94928 10.8563 4.49014 10.8563 2.97125 9.33743C1.45237 7.81854 1.45237 5.3594 2.97126 3.84052C4.49014 2.32164 6.94928 2.32164 8.46816 3.84052C9.98704 5.3594 9.98704 7.81854 8.46816 9.33743Z" fill="#0143EB"/>
<circle cx="146.512" cy="23.5714" r="3.21429" fill="#0143EB"/>
</g>
<defs>
<clipPath id="clip0_65_3887">
<rect width="149.167" height="30" fill="white" transform="translate(0.916504)"/>
</clipPath>
</defs>
</svg>
