<svg width="570" height="518" viewBox="0 0 570 518" fill="none" xmlns="http://www.w3.org/2000/svg">
<circle cx="288" cy="259" r="256.5" stroke="white" stroke-width="5"/>
<circle opacity="0.5" cx="288" cy="259" r="232" fill="white"/>
<g clip-path="url(#clip0_65_3784)">
<path d="M5.18537 306.984C1.88631 300.737 0.0114288 293.622 0.000175476 286.069C-0.036911 261.273 20.1932 241.006 44.9884 241C69.8504 240.994 90.0063 261.15 90 286.012C89.9937 310.807 69.7266 331.037 44.9314 331C37.3783 330.989 30.2632 329.114 24.0166 325.815L6.01242 328.201C4.14474 328.448 2.55164 326.855 2.79914 324.988L5.18537 306.984Z" fill="#771CF6"/>
<path d="M2.79849 324.988C2.55064 326.855 4.14497 328.449 6.01177 328.202L24.017 325.814C30.2626 329.114 37.3782 330.989 44.9315 331C67.2575 331.033 85.9131 314.635 89.4094 293.267C82.6981 307.753 68.0274 317.801 51.01 317.801C27.6487 317.801 8.71001 298.862 8.71001 275.501C8.71001 266.587 11.4663 258.316 16.1737 251.498C6.28248 259.78 -0.0210419 272.217 5.34058e-05 286.069C0.0105972 293.622 1.88618 300.737 5.1856 306.983L2.79849 324.988Z" fill="#8F3FFF"/>
<path d="M85.0635 283.75C82.9063 283.75 81.0749 282.184 80.7254 280.055C79.5088 272.644 76.0227 265.814 70.6078 260.397C64.8307 254.617 57.4421 251.034 49.4541 250.061C47.2493 249.792 45.5911 247.922 45.5911 245.701C45.5911 243.069 47.8909 241.018 50.5035 241.337C70.3462 243.756 86.2017 259.089 89.4071 278.679C89.8425 281.34 87.7607 283.75 85.0635 283.75Z" fill="#8F3FFF"/>
<path d="M72.4583 250.349C77.927 254.566 82.3984 260.014 85.4579 266.277C86.5674 268.548 85.5315 271.296 83.1822 272.229C83.155 272.24 83.1277 272.251 83.1005 272.262C80.9907 273.102 78.576 272.202 77.582 270.161C75.8423 266.587 73.5003 263.291 70.6079 260.397C69.5029 259.292 68.3385 258.267 67.1225 257.326C65.3026 255.917 64.8799 253.337 66.1724 251.432C66.1889 251.408 66.2052 251.384 66.2218 251.359C67.6231 249.298 70.4846 248.827 72.4583 250.349Z" fill="#771CF6"/>
<path d="M6.01169 328.201L18.9441 326.487C14.089 325.031 6.40509 315.122 5.18534 306.983L2.79841 324.988C2.55056 326.855 4.1449 328.449 6.01169 328.201Z" fill="#771CF6"/>
<path d="M11.9554 286C11.9554 300.017 13.8015 311.379 45.0005 311.379C73.2173 311.379 77.4244 302.085 77.9709 289.939C78.0288 288.656 78.0457 287.34 78.0457 286C78.0457 274.911 76.8899 265.482 60.9544 262.029C56.7492 261.117 51.5146 260.622 45.0005 260.622C38.0686 260.622 32.5856 261.183 28.2502 262.209C13.0722 265.802 11.9554 275.098 11.9554 286Z" fill="white"/>
<path d="M73.1775 285.476C70.7194 285.476 68.6735 283.583 68.4859 281.132C68.2502 278.051 67.675 275.884 66.3966 274.537C65.7907 273.899 64.7084 273.096 62.7844 272.347C60.6475 271.514 59.4205 269.27 59.9087 267.029C59.9153 266.998 59.922 266.967 59.9287 266.937C60.5394 264.138 63.5081 262.525 66.1788 263.562C74.9912 266.981 77.3026 273.102 77.8714 280.416C78.0836 283.146 75.9157 285.476 73.1775 285.476Z" fill="#EAF4F4"/>
<path d="M75.6894 271.558C76.2139 272.589 76.6237 273.676 76.9433 274.81C77.7518 277.681 75.7523 280.578 72.7785 280.804C70.5566 280.974 68.5012 279.566 67.9012 277.42C67.7437 276.857 67.5546 276.348 67.3278 275.893C66.797 274.825 66.6599 273.606 66.9844 272.459C68.1436 268.36 73.7583 267.762 75.6894 271.558Z" fill="#F8FFFC"/>
<path d="M11.9546 286C11.9546 300.016 13.801 311.379 45.0004 311.379C70.7782 311.379 76.5187 303.622 77.7351 293.02C71.2224 299.946 61.977 304.271 51.7202 304.271C32.1193 304.271 16.2075 288.475 16.0215 268.919C12.3608 273.428 11.9546 279.421 11.9546 286Z" fill="#C6E8F3"/>
<path d="M45.0005 303.103C30.3787 303.103 18.5254 296.262 18.5254 287.823C18.5254 279.385 30.3787 272.544 45.0005 272.544C59.6223 272.544 71.4756 279.385 71.4756 287.823C71.4756 296.262 59.6223 303.103 45.0005 303.103Z" fill="#771CF6"/>
<path d="M18.5261 287.824C18.5261 296.263 30.3789 303.104 45.0004 303.104C59.6219 303.104 71.4746 296.263 71.4746 287.824C71.4746 287.184 71.4062 286.554 71.2753 285.937C68.129 293.209 58.2516 297.968 47.0384 297.006C33.9407 295.881 23.9704 287.38 24.7258 277.998C20.8565 280.652 18.5261 284.083 18.5261 287.824Z" fill="#8F3FFF"/>
<path d="M53.2119 292.347C53.2514 292.347 53.2912 292.346 53.3312 292.343C54.5431 292.279 55.4728 291.244 55.4078 290.032C55.3552 289.049 56.0483 288.179 57.02 288.007C57.991 287.837 58.9408 288.417 59.2275 289.359C59.581 290.519 60.8086 291.174 61.9697 290.82C63.1305 290.467 63.785 289.239 63.4315 288.078C62.4982 285.014 59.4135 283.122 56.2568 283.679C53.0997 284.236 50.8482 287.068 51.0195 290.267C51.0825 291.439 52.0523 292.347 53.2119 292.347Z" fill="white"/>
<path d="M36.7884 292.347C37.9482 292.347 38.9178 291.438 38.9806 290.267C39.152 287.068 36.9004 284.236 33.7434 283.679C30.5869 283.122 27.5021 285.014 26.5687 288.078C26.2152 289.239 26.8696 290.466 28.0305 290.82C29.1919 291.173 30.419 290.519 30.7727 289.358C31.0594 288.417 32.0089 287.835 32.9801 288.007C33.9518 288.178 34.6451 289.049 34.5924 290.032C34.5275 291.244 35.4572 292.279 36.6689 292.343C36.7091 292.345 36.749 292.347 36.7884 292.347Z" fill="white"/>
<path d="M29.9938 261.833C31.5984 265.232 37.7087 267.761 45.0005 267.761C52.2922 267.761 58.4025 265.232 60.0071 261.833C55.9701 261.046 51.0342 260.621 45.0005 260.621C38.9668 260.621 34.0308 261.046 29.9938 261.833Z" fill="#C6E8F3"/>
</g>
<path d="M507.607 125.002C501.265 125.002 495.71 128.916 493.412 134.564C493.413 134.569 493.413 134.573 493.413 134.578C493.231 135.03 493.057 135.494 492.918 135.966L486.52 138.509C482.519 141.276 479.891 145.895 479.891 151.118V153.383L474.035 156.54C471.553 158.88 470 162.194 470 165.866V176.134C470 182.196 474.229 187.289 479.891 188.617V190.882C479.891 196.105 482.518 200.726 486.519 203.493L492.918 206.033C494.812 212.427 500.752 216.998 507.607 216.998C512.695 216.998 517.212 214.505 520 210.677L521.954 170.929L520 131.323C517.212 127.495 512.695 125.002 507.607 125.002Z" fill="#54BBC6"/>
<path d="M487.046 172.905V167.046C483.102 167.046 479.894 163.838 479.894 159.895L479.891 153.383C477.658 153.907 475.65 155.018 474.035 156.54V159.895C474.035 167.069 479.871 172.905 487.046 172.905Z" fill="#1BA2B1"/>
<path d="M491.771 154.33L495.842 150.094C493.632 147.44 492.301 144.028 492.301 140.305C492.301 138.279 492.917 135.967 492.917 135.967C490.569 136.321 488.394 137.213 486.52 138.509C486.47 139.101 486.442 139.7 486.442 140.305C486.442 145.68 488.457 150.593 491.771 154.33Z" fill="#1BA2B1"/>
<path d="M491.771 187.67L495.842 191.906C493.632 194.56 492.301 197.971 492.301 201.695C492.301 203.721 492.917 206.033 492.917 206.033C490.569 205.679 488.394 204.787 486.52 203.491C486.47 202.899 486.442 202.3 486.442 201.695C486.442 196.32 488.457 191.407 491.771 187.67Z" fill="#1BA2B1"/>
<path d="M532.393 125.002C538.735 125.002 544.29 128.916 546.588 134.564C546.587 134.569 546.587 134.573 546.587 134.578C546.769 135.03 546.943 135.494 547.082 135.966L553.48 138.509C557.481 141.276 560.109 145.895 560.109 151.118V153.383L565.965 156.54C568.447 158.88 570 162.194 570 165.866V176.134C570 182.196 565.771 187.289 560.109 188.617V190.882C560.109 196.105 557.482 200.726 553.481 203.493L547.082 206.033C545.187 212.427 539.248 216.998 532.393 216.998C527.305 216.998 522.788 214.505 520 210.677V131.323C522.788 127.495 527.305 125.002 532.393 125.002Z" fill="#54BBC6"/>
<path d="M552.954 172.905V167.046C556.897 167.046 560.106 163.838 560.106 159.895L560.109 153.383C562.342 153.907 564.35 155.018 565.965 156.54V159.895C565.965 167.069 560.129 172.905 552.954 172.905Z" fill="#1BA2B1"/>
<path d="M548.229 154.33L544.157 150.094C546.368 147.44 547.699 144.028 547.699 140.305C547.699 138.279 547.082 135.967 547.082 135.967C549.431 136.321 551.606 137.213 553.48 138.509C553.53 139.101 553.558 139.7 553.558 140.305C553.558 145.68 551.543 150.593 548.229 154.33Z" fill="#1BA2B1"/>
<path d="M548.229 187.67L544.157 191.906C546.368 194.56 547.699 197.971 547.699 201.695C547.699 203.721 547.082 206.033 547.082 206.033C549.431 205.679 551.606 204.787 553.48 203.491C553.53 202.899 553.558 202.3 553.558 201.695C553.558 196.32 551.543 191.407 548.229 187.67Z" fill="#1BA2B1"/>
<path d="M500.296 184.824H506.156V176.788H514.142V184.824H520.001V157.176H500.296V184.824ZM514.142 163.035V170.929H506.156V163.035H514.142Z" fill="#FDFDFD"/>
<path d="M539.703 163.035V157.176H525.904V163.035H529.874V178.965H525.904V184.824H539.703V178.965H535.733V163.035H539.703Z" fill="#F0F0F4"/>
<defs>
<clipPath id="clip0_65_3784">
<rect width="90" height="90" fill="white" transform="matrix(-1 0 0 1 90 241)"/>
</clipPath>
</defs>
</svg>
